<mxfile host="app.diagrams.net" modified="2023-10-09T03:35:30.095Z" agent="Mozilla/5.0 (Windows NT 10.0; Win64; x64) AppleWebKit/537.36 (KHTML, like Gecko) Chrome/117.0.0.0 Safari/537.36" etag="d6DEx6br3cWV9O57qfuE" version="22.0.4" type="device">
  <diagram name="Page-1" id="ZwxdwYR_7Jq1wGENGhuf">
    <mxGraphModel dx="989" dy="539" grid="1" gridSize="10" guides="1" tooltips="1" connect="1" arrows="1" fold="1" page="1" pageScale="1" pageWidth="827" pageHeight="1169" math="0" shadow="0">
      <root>
        <mxCell id="0" />
        <mxCell id="1" parent="0" />
        <mxCell id="93Y61RelHoVEjkeXGkIh-6" style="edgeStyle=orthogonalEdgeStyle;rounded=0;orthogonalLoop=1;jettySize=auto;html=1;exitX=0.25;exitY=0;exitDx=0;exitDy=0;entryX=0.25;entryY=1;entryDx=0;entryDy=0;" edge="1" parent="1" source="93Y61RelHoVEjkeXGkIh-1" target="93Y61RelHoVEjkeXGkIh-3">
          <mxGeometry relative="1" as="geometry" />
        </mxCell>
        <mxCell id="93Y61RelHoVEjkeXGkIh-22" value="3V3" style="edgeLabel;html=1;align=center;verticalAlign=middle;resizable=0;points=[];" vertex="1" connectable="0" parent="93Y61RelHoVEjkeXGkIh-6">
          <mxGeometry x="0.0359" relative="1" as="geometry">
            <mxPoint as="offset" />
          </mxGeometry>
        </mxCell>
        <mxCell id="93Y61RelHoVEjkeXGkIh-7" style="edgeStyle=orthogonalEdgeStyle;rounded=0;orthogonalLoop=1;jettySize=auto;html=1;exitX=0;exitY=0.5;exitDx=0;exitDy=0;endArrow=none;endFill=0;startArrow=classic;startFill=1;" edge="1" parent="1" source="93Y61RelHoVEjkeXGkIh-1">
          <mxGeometry relative="1" as="geometry">
            <mxPoint x="40" y="294.79310344827593" as="targetPoint" />
          </mxGeometry>
        </mxCell>
        <mxCell id="93Y61RelHoVEjkeXGkIh-17" style="edgeStyle=orthogonalEdgeStyle;rounded=0;orthogonalLoop=1;jettySize=auto;html=1;exitX=1;exitY=0.5;exitDx=0;exitDy=0;entryX=0;entryY=0.5;entryDx=0;entryDy=0;" edge="1" parent="1" source="93Y61RelHoVEjkeXGkIh-1" target="93Y61RelHoVEjkeXGkIh-18">
          <mxGeometry relative="1" as="geometry">
            <mxPoint x="370" y="294.79310344827593" as="targetPoint" />
          </mxGeometry>
        </mxCell>
        <mxCell id="93Y61RelHoVEjkeXGkIh-25" value="24VDC" style="edgeLabel;html=1;align=center;verticalAlign=middle;resizable=0;points=[];" vertex="1" connectable="0" parent="93Y61RelHoVEjkeXGkIh-17">
          <mxGeometry x="-0.1046" relative="1" as="geometry">
            <mxPoint as="offset" />
          </mxGeometry>
        </mxCell>
        <mxCell id="93Y61RelHoVEjkeXGkIh-1" value="&lt;b&gt;BMS + CHARGER&lt;/b&gt;" style="rounded=1;whiteSpace=wrap;html=1;fillColor=#99FF99;" vertex="1" parent="1">
          <mxGeometry x="120" y="260" width="180" height="70" as="geometry" />
        </mxCell>
        <mxCell id="93Y61RelHoVEjkeXGkIh-28" style="edgeStyle=orthogonalEdgeStyle;rounded=0;orthogonalLoop=1;jettySize=auto;html=1;exitX=0;exitY=0.5;exitDx=0;exitDy=0;entryX=0.25;entryY=1;entryDx=0;entryDy=0;endArrow=none;endFill=0;startArrow=classic;startFill=1;" edge="1" parent="1" source="93Y61RelHoVEjkeXGkIh-2" target="93Y61RelHoVEjkeXGkIh-1">
          <mxGeometry relative="1" as="geometry" />
        </mxCell>
        <mxCell id="93Y61RelHoVEjkeXGkIh-30" value="VNEG" style="edgeLabel;html=1;align=center;verticalAlign=middle;resizable=0;points=[];" vertex="1" connectable="0" parent="93Y61RelHoVEjkeXGkIh-28">
          <mxGeometry x="0.4049" y="-2" relative="1" as="geometry">
            <mxPoint x="-7" as="offset" />
          </mxGeometry>
        </mxCell>
        <mxCell id="93Y61RelHoVEjkeXGkIh-2" value="" style="rounded=1;whiteSpace=wrap;html=1;fillColor=#99FF99;" vertex="1" parent="1">
          <mxGeometry x="140" y="380" width="120" height="60" as="geometry" />
        </mxCell>
        <mxCell id="93Y61RelHoVEjkeXGkIh-4" style="edgeStyle=orthogonalEdgeStyle;rounded=0;orthogonalLoop=1;jettySize=auto;html=1;exitX=0.5;exitY=1;exitDx=0;exitDy=0;startArrow=classic;startFill=1;" edge="1" parent="1">
          <mxGeometry relative="1" as="geometry">
            <mxPoint x="219.66" y="210" as="sourcePoint" />
            <mxPoint x="219.66" y="260" as="targetPoint" />
          </mxGeometry>
        </mxCell>
        <mxCell id="93Y61RelHoVEjkeXGkIh-5" value="I2C + Digital" style="edgeLabel;html=1;align=center;verticalAlign=middle;resizable=0;points=[];" vertex="1" connectable="0" parent="93Y61RelHoVEjkeXGkIh-4">
          <mxGeometry x="-0.0359" y="2" relative="1" as="geometry">
            <mxPoint as="offset" />
          </mxGeometry>
        </mxCell>
        <mxCell id="93Y61RelHoVEjkeXGkIh-23" style="edgeStyle=orthogonalEdgeStyle;rounded=0;orthogonalLoop=1;jettySize=auto;html=1;exitX=1;exitY=0.5;exitDx=0;exitDy=0;" edge="1" parent="1" source="93Y61RelHoVEjkeXGkIh-3" target="93Y61RelHoVEjkeXGkIh-18">
          <mxGeometry relative="1" as="geometry" />
        </mxCell>
        <mxCell id="93Y61RelHoVEjkeXGkIh-24" value="PWM" style="edgeLabel;html=1;align=center;verticalAlign=middle;resizable=0;points=[];" vertex="1" connectable="0" parent="93Y61RelHoVEjkeXGkIh-23">
          <mxGeometry x="-0.2417" y="-2" relative="1" as="geometry">
            <mxPoint x="-16" y="-2" as="offset" />
          </mxGeometry>
        </mxCell>
        <mxCell id="93Y61RelHoVEjkeXGkIh-3" value="&lt;b&gt;MCU&lt;br&gt;(STM32, SD-CARD, &lt;br&gt;LCD DISPLAY)&lt;/b&gt;" style="rounded=1;whiteSpace=wrap;html=1;fillColor=#99FF99;" vertex="1" parent="1">
          <mxGeometry x="120" y="140" width="180" height="70" as="geometry" />
        </mxCell>
        <mxCell id="93Y61RelHoVEjkeXGkIh-8" value="V_CHARGE" style="text;html=1;strokeColor=none;fillColor=none;align=center;verticalAlign=middle;whiteSpace=wrap;rounded=0;" vertex="1" parent="1">
          <mxGeometry x="30" y="270" width="60" height="30" as="geometry" />
        </mxCell>
        <mxCell id="93Y61RelHoVEjkeXGkIh-12" value="" style="rounded=1;whiteSpace=wrap;html=1;fillColor=#99FF99;" vertex="1" parent="1">
          <mxGeometry x="150" y="390" width="120" height="60" as="geometry" />
        </mxCell>
        <mxCell id="93Y61RelHoVEjkeXGkIh-13" value="" style="rounded=1;whiteSpace=wrap;html=1;fillColor=#99FF99;" vertex="1" parent="1">
          <mxGeometry x="160" y="400" width="120" height="60" as="geometry" />
        </mxCell>
        <mxCell id="93Y61RelHoVEjkeXGkIh-19" style="edgeStyle=orthogonalEdgeStyle;rounded=0;orthogonalLoop=1;jettySize=auto;html=1;exitX=0.5;exitY=0;exitDx=0;exitDy=0;entryX=0.613;entryY=1.049;entryDx=0;entryDy=0;entryPerimeter=0;" edge="1" parent="1" source="93Y61RelHoVEjkeXGkIh-14" target="93Y61RelHoVEjkeXGkIh-1">
          <mxGeometry relative="1" as="geometry" />
        </mxCell>
        <mxCell id="93Y61RelHoVEjkeXGkIh-27" value="V_CELLS" style="edgeLabel;html=1;align=center;verticalAlign=middle;resizable=0;points=[];" vertex="1" connectable="0" parent="93Y61RelHoVEjkeXGkIh-19">
          <mxGeometry x="0.3262" y="2" relative="1" as="geometry">
            <mxPoint y="1" as="offset" />
          </mxGeometry>
        </mxCell>
        <mxCell id="93Y61RelHoVEjkeXGkIh-29" style="edgeStyle=orthogonalEdgeStyle;rounded=0;orthogonalLoop=1;jettySize=auto;html=1;exitX=1;exitY=0.5;exitDx=0;exitDy=0;entryX=0.862;entryY=1.019;entryDx=0;entryDy=0;entryPerimeter=0;" edge="1" parent="1" source="93Y61RelHoVEjkeXGkIh-14" target="93Y61RelHoVEjkeXGkIh-1">
          <mxGeometry relative="1" as="geometry">
            <Array as="points">
              <mxPoint x="310" y="440" />
              <mxPoint x="310" y="360" />
              <mxPoint x="275" y="360" />
            </Array>
          </mxGeometry>
        </mxCell>
        <mxCell id="93Y61RelHoVEjkeXGkIh-31" value="VPOS" style="edgeLabel;html=1;align=center;verticalAlign=middle;resizable=0;points=[];" vertex="1" connectable="0" parent="93Y61RelHoVEjkeXGkIh-29">
          <mxGeometry x="0.2083" y="3" relative="1" as="geometry">
            <mxPoint x="-18" y="-3" as="offset" />
          </mxGeometry>
        </mxCell>
        <mxCell id="93Y61RelHoVEjkeXGkIh-14" value="&lt;b&gt;BATTERY CELL BOARDS&lt;/b&gt;" style="rounded=1;whiteSpace=wrap;html=1;fillColor=#99FF99;" vertex="1" parent="1">
          <mxGeometry x="170" y="410" width="120" height="60" as="geometry" />
        </mxCell>
        <mxCell id="93Y61RelHoVEjkeXGkIh-21" style="edgeStyle=orthogonalEdgeStyle;rounded=0;orthogonalLoop=1;jettySize=auto;html=1;exitX=1;exitY=0.5;exitDx=0;exitDy=0;" edge="1" parent="1" source="93Y61RelHoVEjkeXGkIh-18" target="93Y61RelHoVEjkeXGkIh-20">
          <mxGeometry relative="1" as="geometry" />
        </mxCell>
        <mxCell id="93Y61RelHoVEjkeXGkIh-18" value="&lt;b&gt;MOTOR CONTROLLER&lt;/b&gt;" style="rounded=1;whiteSpace=wrap;html=1;fillColor=#99CCFF;" vertex="1" parent="1">
          <mxGeometry x="360" y="260" width="110" height="70" as="geometry" />
        </mxCell>
        <mxCell id="93Y61RelHoVEjkeXGkIh-20" value="&lt;b&gt;MOTOR&lt;/b&gt;" style="rounded=1;whiteSpace=wrap;html=1;fillColor=#99CCFF;" vertex="1" parent="1">
          <mxGeometry x="530" y="260" width="100" height="70" as="geometry" />
        </mxCell>
        <mxCell id="93Y61RelHoVEjkeXGkIh-26" style="edgeStyle=orthogonalEdgeStyle;rounded=0;orthogonalLoop=1;jettySize=auto;html=1;exitX=0.146;exitY=-0.001;exitDx=0;exitDy=0;exitPerimeter=0;" edge="1" parent="1" source="93Y61RelHoVEjkeXGkIh-14">
          <mxGeometry relative="1" as="geometry">
            <mxPoint x="188" y="330" as="targetPoint" />
          </mxGeometry>
        </mxCell>
        <mxCell id="93Y61RelHoVEjkeXGkIh-32" value="TEMP" style="edgeLabel;html=1;align=center;verticalAlign=middle;resizable=0;points=[];" vertex="1" connectable="0" parent="93Y61RelHoVEjkeXGkIh-26">
          <mxGeometry x="0.1163" y="3" relative="1" as="geometry">
            <mxPoint as="offset" />
          </mxGeometry>
        </mxCell>
        <mxCell id="93Y61RelHoVEjkeXGkIh-33" value="&lt;b&gt;HAND CONTROLLER&lt;/b&gt;" style="rounded=1;whiteSpace=wrap;html=1;fillColor=#F8CECC;" vertex="1" parent="1">
          <mxGeometry x="350" y="70" width="110" height="40" as="geometry" />
        </mxCell>
        <mxCell id="93Y61RelHoVEjkeXGkIh-34" value="" style="sketch=0;aspect=fixed;pointerEvents=1;shadow=0;dashed=0;html=1;strokeColor=none;labelPosition=center;verticalLabelPosition=bottom;verticalAlign=top;align=center;fillColor=#00188D;shape=mxgraph.mscae.enterprise.wireless_connection;rotation=-200;" vertex="1" parent="1">
          <mxGeometry x="300" y="90" width="42" height="50" as="geometry" />
        </mxCell>
        <mxCell id="93Y61RelHoVEjkeXGkIh-35" value="&lt;div style=&quot;text-align: left;&quot;&gt;&lt;span style=&quot;background-color: initial;&quot;&gt;Green = Custom PCBA&lt;/span&gt;&lt;/div&gt;&lt;div style=&quot;text-align: left;&quot;&gt;&lt;span style=&quot;background-color: initial;&quot;&gt;Blue = OTS&lt;br&gt;Pink = OTS + Mods&lt;/span&gt;&lt;/div&gt;" style="text;html=1;strokeColor=default;fillColor=none;align=center;verticalAlign=middle;whiteSpace=wrap;rounded=0;" vertex="1" parent="1">
          <mxGeometry x="470" y="410" width="137" height="60" as="geometry" />
        </mxCell>
        <mxCell id="93Y61RelHoVEjkeXGkIh-37" value="&lt;i&gt;Wireless protocol TBD&lt;/i&gt;" style="text;html=1;strokeColor=none;fillColor=none;align=center;verticalAlign=middle;whiteSpace=wrap;rounded=0;" vertex="1" parent="1">
          <mxGeometry x="344" y="120" width="126" height="30" as="geometry" />
        </mxCell>
        <mxCell id="93Y61RelHoVEjkeXGkIh-38" value="&lt;i&gt;MCU board stacked on BMS board with standoffs&lt;/i&gt;" style="text;html=1;strokeColor=none;fillColor=none;align=center;verticalAlign=middle;whiteSpace=wrap;rounded=0;" vertex="1" parent="1">
          <mxGeometry x="30" y="100" width="150" height="30" as="geometry" />
        </mxCell>
        <mxCell id="93Y61RelHoVEjkeXGkIh-40" value="&lt;b style=&quot;&quot;&gt;eSUP - HIGH LEVEL BLOCK DIAGRAM&lt;/b&gt;" style="text;html=1;strokeColor=none;fillColor=none;align=center;verticalAlign=middle;whiteSpace=wrap;rounded=0;" vertex="1" parent="1">
          <mxGeometry x="224" y="20" width="236" height="30" as="geometry" />
        </mxCell>
      </root>
    </mxGraphModel>
  </diagram>
</mxfile>
